<svg width="32" height="32" version="1.1" xmlns="http://www.w3.org/2000/svg"><defs><marker id="a" overflow="visible" orient="auto"><path transform="scale(.4) rotate(180) translate(10)" d="m0 0 5-5-17.5 5 17.5 5-5-5z" fill="#fff" fill-rule="evenodd" stroke="#fff" stroke-width="1pt"/></marker><marker id="b" overflow="visible" orient="auto"><path transform="scale(.4) rotate(180) translate(10)" d="m0 0 5-5-17.5 5 17.5 5-5-5z" fill="#fff" fill-rule="evenodd" stroke="#fff" stroke-width="1pt"/></marker><marker id="c" overflow="visible" orient="auto"><path transform="scale(.4) rotate(180) translate(10)" d="m0 0 5-5-17.5 5 17.5 5-5-5z" fill="#fff" fill-rule="evenodd" stroke="#fff" stroke-width="1pt"/></marker></defs><g transform="matrix(.98379 0 0 .98379 1.6846 -.49663)" stroke-linecap="square" stroke-linejoin="round" stroke-width=".84934"><path d="m4.2612 2.0185 10.427 7.2721 10.503-7.2721zm-2.311 0.99117-0.17556 15.276h25.48l0.17526-15.249-12.767 8.8397z" fill="#999" stroke="#999"/><path d="m4.2612 2.0185 10.427 7.2721 10.503-7.2721zm-2.311 0.99117-0.17556 15.276h25.48l0.17526-15.249-12.767 8.8397z" fill="#999" stroke="#999"/><path d="m4.9564 2.5507 10.427 7.2721 10.503-7.2721zm-2.311 0.99117-0.17556 15.276h25.48l0.17526-15.249-12.767 8.8397z" fill="#fff" stroke="#fff"/></g><g fill="#fff" stroke="#fff" stroke-width="1px"><path d="m3.7937 22.455-0.24475 7.5139" marker-end="url(#b)"/><path d="m17.084 18.857-0.24475 11.112" marker-end="url(#c)"/><path d="m29.15 22.455-0.24475 7.5139" marker-end="url(#a)"/><path d="m3.3042 22.455h26.335"/></g></svg>
